<svg width="1027" height="1027" viewBox="0 0 1027 1027" fill="none" xmlns="http://www.w3.org/2000/svg">
<path d="M666.929 246.275C662.459 241.84 662.201 234.738 666.557 230.192C681.048 215.063 713.665 183.965 740.403 179.951C768.303 175.762 779.605 193.55 794.278 208.162C808.56 222.386 822.523 233.032 814.032 262.568C806.641 288.271 786.539 307.805 766.126 327.814C761.397 332.449 753.792 332.457 749.092 327.794L666.929 246.275Z" fill="#FF970E"/>
<path d="M612.02 285.528C616.699 280.833 624.306 280.811 629.011 285.478L710.59 366.391C715.296 371.058 715.318 378.647 710.639 383.341L461.472 633.342C448.016 646.848 460.328 634.49 399.619 695.418C394.941 700.113 387.279 700.189 382.574 695.522L300.995 614.61C296.29 609.943 296.268 602.354 300.946 597.66L612.02 285.528Z" fill="black"/>
<path d="M252.298 699.591C253.125 697.634 255.673 697.133 257.176 698.637C270.771 712.245 284.074 726.268 298.116 739.403C299.515 740.712 299.286 742.837 297.552 743.657C285.629 749.299 247.418 764.923 241.525 766.816C241.331 766.879 241.147 766.908 240.943 766.924C219.324 768.56 234.179 742.376 240.18 728.26L252.298 699.591Z" fill="black"/>
<rect x="158" y="851" width="559" height="57" rx="28.5" fill="black"/>
</svg>
